# xmcd
#
# Track frame offsets:
#	150
#	22735
#	47535
#
# Disc length: 919 seconds
#
# Revision: 1
# Processed by: cddbd v1.5.1PL0 Copyright (c) Steve Scherf et al.
# Submitted via: EasyCDDAExtractor 8.1.2.3
#
DISCID=14039503
DTITLE=Sequential One - My Love Is Hot (Remix Edition) (Maxi-CD)
DYEAR=1997
DGENRE=Dance
TTITLE0=My Love Is Hot (Love And Fate Mix) (Remix Edition)
TTITLE1=My Love Is Hot (Factory Dub Mix) (Remix Edition)
TTITLE2=My Love Is Hot (Spacekid Remix) (Remix Edition)
EXTD=Single YEAR: 1997\n
EXTT0=
EXTT1=
EXTT2=
PLAYORDER=
